<?xml version="1.0" standalone="no"?>
<!DOCTYPE svg PUBLIC "-//W3C//DTD SVG 20010904//EN"
 "http://www.w3.org/TR/2001/REC-SVG-20010904/DTD/svg10.dtd">
<svg version="1.0" xmlns="http://www.w3.org/2000/svg"
 width="1303.000000pt" height="907.000000pt" viewBox="0 0 1303.000000 907.000000"
 preserveAspectRatio="xMidYMid meet">

<g transform="translate(0.000000,907.000000) scale(0.100000,-0.100000)"
fill="#000000" stroke="none">
<path d="M6408 8104 c-40 -21 -58 -63 -58 -136 l0 -63 105 -105 105 -105 0
167 c0 92 -4 178 -10 192 -11 29 -65 66 -95 66 -11 -1 -32 -7 -47 -16z"/>
<path d="M6792 8035 c-55 -25 -62 -56 -62 -297 l0 -213 105 -105 105 -105 0
333 0 332 -27 30 c-34 36 -76 45 -121 25z"/>
<path d="M7180 7989 c-61 -24 -60 -16 -60 -454 l0 -400 123 -123 c115 -115
125 -122 154 -116 46 9 93 -36 100 -98 5 -42 13 -53 109 -149 l104 -104 0 622
c0 363 -4 632 -9 646 -28 72 -118 92 -172 38 l-29 -29 0 -319 c0 -300 -1 -320
-20 -351 -40 -65 -108 -61 -142 8 -16 31 -18 73 -18 403 0 405 0 405 -62 426
-37 13 -45 13 -78 0z"/>
<path d="M7927 7599 c-47 -27 -47 -31 -47 -646 l0 -578 105 -105 105 -105 0
151 c0 139 2 153 21 178 28 35 57 46 92 34 51 -18 57 -46 57 -278 0 -234 7
-267 59 -294 47 -25 79 -20 117 18 l34 34 0 475 0 474 -24 26 c-30 32 -67 42
-108 31 -50 -15 -70 -52 -78 -143 -4 -44 -13 -88 -21 -97 -21 -26 -59 -36 -89
-24 -54 23 -55 24 -60 433 l-5 379 -28 24 c-30 26 -96 33 -130 13z"/>
</g>
</svg>
